<svg xmlns="http://www.w3.org/2000/svg" xmlns:xlink="http://www.w3.org/1999/xlink" xmlns:lucid="lucid" width="1029" height="610.58"><g transform="translate(240 310.57692307692304)" lucid:page-tab-id="u_00wJaPiShr"><path d="M-220-284.58c0-3.3 2.7-6 6-6h977c3.3 0 6 2.7 6 6V274c0 3.3-2.7 6-6 6h-977c-3.3 0-6-2.7-6-6z" stroke="#5e5e5e" stroke-width="3" fill="#ccc"/><path d="M-153.43-233.52c0 10.5-8.52 19.02-19.02 19.02s-19.02-8.52-19.02-19.02 8.5-19.02 19.02-19.02c10.5 0 19.02 8.52 19.02 19.02zM-102.08-233.52c0 10.5-8.52 19.02-19.02 19.02s-19.02-8.52-19.02-19.02 8.52-19.02 19.02-19.02 19.02 8.52 19.02 19.02zM-50.73-233.52c0 10.5-8.5 19.02-19.02 19.02-10.5 0-19.02-8.52-19.02-19.02s8.52-19.02 19.02-19.02 19.02 8.52 19.02 19.02zM-26-246.54c0-3.3 2.68-6 6-6h744.96c3.32 0 6 2.7 6 6v26.04c0 3.3-2.68 6-6 6H-20c-3.32 0-6-2.7-6-6zM-181.96-170.46c0-3.32 2.68-6 6-6h900.92c3.32 0 6 2.68 6 6v406.42c0 3.32-2.68 6-6 6h-900.92c-3.32 0-6-2.68-6-6z" stroke="#5e5e5e" stroke-width="3" fill="#fff"/><path d="M-160-154c0-3.3 2.7-6 6-6h868c3.3 0 6 2.7 6 6v48c0 3.3-2.7 6-6 6h-868c-3.3 0-6-2.7-6-6z" stroke="#3aa6dd" stroke-width="3" fill="#99d2f2"/><use xlink:href="#a" transform="matrix(1,0,0,1,-155,-155) translate(399.2283950617284 30.27777777777778)"/><path d="M-160-74c0-3.3 2.7-6 6-6H14c3.3 0 6 2.7 6 6V94c0 3.3-2.7 6-6 6h-168c-3.3 0-6-2.7-6-6z" stroke="#de5f85" stroke-width="3" fill="#f5b5c8"/><use xlink:href="#b" transform="matrix(1,0,0,1,-155,-75) translate(32.623456790123456 86.84027777777777)"/><path d="M40-74c0-3.3 2.7-6 6-6h448c3.3 0 6 2.7 6 6v288c0 3.3-2.7 6-6 6H46c-3.3 0-6-2.7-6-6z" stroke="#ef8d22" stroke-width="3" fill="#ffc374"/><use xlink:href="#c" transform="matrix(1,0,0,1,45,-75) translate(186.14197530864197 149.18402777777777)"/><path d="M-160 166c0-3.3 2.7-6 6-6H14c3.3 0 6 2.7 6 6v48c0 3.3-2.7 6-6 6h-168c-3.3 0-6-2.7-6-6z" stroke="#7ab648" stroke-width="3" fill="#a3d977"/><use xlink:href="#d" transform="matrix(1,0,0,1,-155,165) translate(66.48148148148148 30.27777777777778)"/><path d="M520-74c0-3.3 2.7-6 6-6h188c3.3 0 6 2.7 6 6v228c0 3.3-2.7 6-6 6H526c-3.3 0-6-2.7-6-6z" stroke="#834187" stroke-width="3" fill="#b391b5"/><use xlink:href="#e" transform="matrix(1,0,0,1,525,-75) translate(75.30864197530865 118.40277777777777)"/><defs><path fill="#333" d="M160-131c35 5 61 23 61 61C221 17 115-2 30 0v-248c76 3 177-17 177 60 0 33-19 50-47 57zm-97-11c50-1 110 9 110-42 0-47-63-36-110-37v79zm0 115c55-2 124 14 124-45 0-56-70-42-124-44v89" id="f"/><path fill="#333" d="M141-36C126-15 110 5 73 4 37 3 15-17 15-53c-1-64 63-63 125-63 3-35-9-54-41-54-24 1-41 7-42 31l-33-3c5-37 33-52 76-52 45 0 72 20 72 64v82c-1 20 7 32 28 27v20c-31 9-61-2-59-35zM48-53c0 20 12 33 32 33 41-3 63-29 60-74-43 2-92-5-92 41" id="g"/><path fill="#333" d="M117-194c89-4 53 116 60 194h-32v-121c0-31-8-49-39-48C34-167 62-67 57 0H25l-1-190h30c1 10-1 24 2 32 11-22 29-35 61-36" id="h"/><path fill="#333" d="M100-194c63 0 86 42 84 106H49c0 40 14 67 53 68 26 1 43-12 49-29l28 8c-11 28-37 45-77 45C44 4 14-33 15-96c1-61 26-98 85-98zm52 81c6-60-76-77-97-28-3 7-6 17-6 28h103" id="i"/><path fill="#333" d="M114-163C36-179 61-72 57 0H25l-1-190h30c1 12-1 29 2 39 6-27 23-49 58-41v29" id="j"/><g id="a"><use transform="matrix(0.06172839506172839,0,0,0.06172839506172839,0,0)" xlink:href="#f"/><use transform="matrix(0.06172839506172839,0,0,0.06172839506172839,14.814814814814813,0)" xlink:href="#g"/><use transform="matrix(0.06172839506172839,0,0,0.06172839506172839,27.160493827160494,0)" xlink:href="#h"/><use transform="matrix(0.06172839506172839,0,0,0.06172839506172839,39.50617283950617,0)" xlink:href="#h"/><use transform="matrix(0.06172839506172839,0,0,0.06172839506172839,51.85185185185185,0)" xlink:href="#i"/><use transform="matrix(0.06172839506172839,0,0,0.06172839506172839,64.19753086419753,0)" xlink:href="#j"/></g><path fill="#333" d="M190 0L58-211 59 0H30v-248h39L202-35l-2-213h31V0h-41" id="k"/><path fill="#333" d="M108 0H70L1-190h34L89-25l56-165h34" id="l"/><path fill="#333" d="M24-231v-30h32v30H24zM24 0v-190h32V0H24" id="m"/><path fill="#333" d="M177-190C167-65 218 103 67 71c-23-6-38-20-44-43l32-5c15 47 100 32 89-28v-30C133-14 115 1 83 1 29 1 15-40 15-95c0-56 16-97 71-98 29-1 48 16 59 35 1-10 0-23 2-32h30zM94-22c36 0 50-32 50-73 0-42-14-75-50-75-39 0-46 34-46 75s6 73 46 73" id="n"/><path fill="#333" d="M59-47c-2 24 18 29 38 22v24C64 9 27 4 27-40v-127H5v-23h24l9-43h21v43h35v23H59v120" id="o"/><path fill="#333" d="M100-194c62-1 85 37 85 99 1 63-27 99-86 99S16-35 15-95c0-66 28-99 85-99zM99-20c44 1 53-31 53-75 0-43-8-75-51-75s-53 32-53 75 10 74 51 75" id="p"/><g id="b"><use transform="matrix(0.06172839506172839,0,0,0.06172839506172839,0,0)" xlink:href="#k"/><use transform="matrix(0.06172839506172839,0,0,0.06172839506172839,15.987654320987653,0)" xlink:href="#g"/><use transform="matrix(0.06172839506172839,0,0,0.06172839506172839,28.333333333333332,0)" xlink:href="#l"/><use transform="matrix(0.06172839506172839,0,0,0.06172839506172839,39.44444444444444,0)" xlink:href="#m"/><use transform="matrix(0.06172839506172839,0,0,0.06172839506172839,44.32098765432099,0)" xlink:href="#n"/><use transform="matrix(0.06172839506172839,0,0,0.06172839506172839,56.666666666666664,0)" xlink:href="#g"/><use transform="matrix(0.06172839506172839,0,0,0.06172839506172839,69.01234567901234,0)" xlink:href="#o"/><use transform="matrix(0.06172839506172839,0,0,0.06172839506172839,75.18518518518518,0)" xlink:href="#m"/><use transform="matrix(0.06172839506172839,0,0,0.06172839506172839,80.06172839506172,0)" xlink:href="#p"/><use transform="matrix(0.06172839506172839,0,0,0.06172839506172839,92.4074074074074,0)" xlink:href="#h"/></g><path fill="#333" d="M212-179c-10-28-35-45-73-45-59 0-87 40-87 99 0 60 29 101 89 101 43 0 62-24 78-52l27 14C228-24 195 4 139 4 59 4 22-46 18-125c-6-104 99-153 187-111 19 9 31 26 39 46" id="q"/><g id="c"><use transform="matrix(0.06172839506172839,0,0,0.06172839506172839,0,0)" xlink:href="#q"/><use transform="matrix(0.06172839506172839,0,0,0.06172839506172839,15.987654320987653,0)" xlink:href="#p"/><use transform="matrix(0.06172839506172839,0,0,0.06172839506172839,28.333333333333332,0)" xlink:href="#h"/><use transform="matrix(0.06172839506172839,0,0,0.06172839506172839,40.67901234567901,0)" xlink:href="#o"/><use transform="matrix(0.06172839506172839,0,0,0.06172839506172839,46.851851851851855,0)" xlink:href="#i"/><use transform="matrix(0.06172839506172839,0,0,0.06172839506172839,59.19753086419753,0)" xlink:href="#h"/><use transform="matrix(0.06172839506172839,0,0,0.06172839506172839,71.54320987654322,0)" xlink:href="#o"/></g><path fill="#333" d="M33 0v-248h34V0H33" id="r"/><path fill="#333" d="M101-234c-31-9-42 10-38 44h38v23H63V0H32v-167H5v-23h27c-7-52 17-82 69-68v24" id="s"/><g id="d"><use transform="matrix(0.06172839506172839,0,0,0.06172839506172839,0,0)" xlink:href="#r"/><use transform="matrix(0.06172839506172839,0,0,0.06172839506172839,6.172839506172839,0)" xlink:href="#h"/><use transform="matrix(0.06172839506172839,0,0,0.06172839506172839,18.51851851851852,0)" xlink:href="#s"/><use transform="matrix(0.06172839506172839,0,0,0.06172839506172839,24.691358024691358,0)" xlink:href="#p"/></g><path fill="#333" d="M127-220V0H93v-220H8v-28h204v28h-85" id="t"/><g id="e"><use transform="matrix(0.06172839506172839,0,0,0.06172839506172839,0,0)" xlink:href="#t"/><use transform="matrix(0.06172839506172839,0,0,0.06172839506172839,11.049382716049381,0)" xlink:href="#p"/><use transform="matrix(0.06172839506172839,0,0,0.06172839506172839,23.39506172839506,0)" xlink:href="#q"/></g></defs></g></svg>